<?xml version="1.0" encoding="UTF-8"?>
<svg id="Layer_1" data-name="Layer 1" xmlns="http://www.w3.org/2000/svg" viewBox="0 0 250 95">
  <defs>
    <style>
      .cls-1 {
        fill: #fff;
      }

      .cls-2 {
        fill: #3c1551;
      }

      .cls-3 {
        fill: #5fd6a3;
        fill-rule: evenodd;
      }

      .cls-4 {
        isolation: isolate;
      }
    </style>
  </defs>
  <g id="Group_360" data-name="Group 360">
    <rect id="Rectangle_164" data-name="Rectangle 164" class="cls-1" width="250" height="95"/>
    <g id="Group_359" data-name="Group 359">
      <g id="maskew_miller" data-name="maskew miller" class="cls-4">
        <g class="cls-4">
          <path class="cls-2" d="m.19,41.98h2.86l.2,1.34c.48-.49,1.04-.86,1.68-1.13.63-.27,1.33-.41,2.07-.41.93,0,1.77.19,2.52.57.75.38,1.34.94,1.79,1.67.5-.71,1.18-1.26,2.02-1.65.84-.39,1.74-.59,2.69-.59,1.1,0,2.06.23,2.87.69s1.44,1.13,1.89,2.02c.45.89.67,1.99.67,3.32v8.18h-3.14v-7.73c0-1.2-.25-2.09-.76-2.69-.5-.6-1.23-.9-2.18-.9s-1.73.3-2.27.91c-.54.61-.81,1.51-.81,2.7v7.7h-3.16v-7.73c0-1.2-.23-2.09-.69-2.69-.46-.6-1.16-.9-2.11-.9s-1.71.3-2.21.91c-.5.61-.76,1.51-.76,2.7v7.7H.19v-14Z"/>
          <path class="cls-2" d="m33.23,55.98l-.28-1.71c-.45.6-.98,1.05-1.6,1.37-.62.32-1.44.48-2.46.48-.97,0-1.81-.16-2.52-.49s-1.26-.78-1.64-1.37c-.38-.59-.57-1.28-.57-2.06,0-1.18.43-2.16,1.29-2.96.86-.79,2.14-1.27,3.84-1.44l3.67-.45v-1.06c0-.45-.2-.85-.59-1.22-.39-.36-1.02-.55-1.88-.55-.75,0-1.4.18-1.95.55-.55.36-.92.91-1.11,1.64l-2.74-1.01c.35-1.23,1.06-2.19,2.11-2.88,1.05-.69,2.34-1.04,3.85-1.04,1.81,0,3.17.46,4.09,1.37.91.92,1.37,2.08,1.37,3.5v9.32h-2.88Zm-.28-6.16l-3.36.45c-.71.07-1.24.27-1.6.59-.35.32-.53.7-.53,1.15s.17.8.52,1.11c.35.31.82.46,1.41.46.78,0,1.44-.13,1.97-.41.53-.27.93-.67,1.19-1.2.26-.53.39-1.18.39-1.95v-.2Z"/>
          <path class="cls-2" d="m41.6,51.47c.13.54.35.94.66,1.21s.67.45,1.08.56c.41.11.78.17,1.12.17.73,0,1.3-.15,1.72-.45s.63-.65.63-1.06-.14-.69-.42-.9c-.28-.21-.64-.37-1.08-.49s-.9-.25-1.39-.38c-.5-.13-1.04-.28-1.6-.45s-1.09-.4-1.6-.7c-.5-.3-.91-.68-1.23-1.15-.32-.47-.48-1.05-.48-1.76,0-.86.24-1.61.73-2.24.49-.63,1.15-1.13,2-1.5.85-.36,1.79-.55,2.81-.55,1.23,0,2.31.26,3.22.78s1.59,1.29,2.02,2.3l-2.77.92c-.13-.28-.32-.51-.57-.7s-.55-.32-.9-.41c-.35-.08-.7-.13-1.05-.13-.6,0-1.1.12-1.51.36-.41.24-.62.58-.62,1.01,0,.24.07.44.21.6.14.16.33.3.57.42.24.12.53.22.87.29.34.08.69.17,1.06.28.6.17,1.19.35,1.78.55.59.2,1.13.44,1.62.74s.89.69,1.18,1.18c.29.49.45,1.1.49,1.85,0,.8-.23,1.53-.7,2.18-.47.65-1.13,1.18-1.99,1.57-.86.39-1.9.59-3.14.59-1.36,0-2.54-.29-3.53-.88-.99-.59-1.66-1.54-2.02-2.87l2.8-.95Z"/>
          <path class="cls-2" d="m53.05,35.82h3.16v11.82h1.04l4.93-5.66h4.14l-6.3,7,6.36,7h-4.17l-4.96-5.68h-1.04v5.68h-3.16v-20.16Z"/>
          <path class="cls-2" d="m73.97,56.18c-1.4,0-2.63-.31-3.68-.92-1.05-.62-1.88-1.47-2.46-2.58s-.88-2.37-.88-3.81c0-1.36.29-2.58.87-3.64.58-1.06,1.38-1.9,2.41-2.52,1.03-.62,2.18-.92,3.47-.92s2.52.29,3.53.87c1.01.58,1.8,1.39,2.38,2.42s.87,2.24.87,3.6c0,.22-.01.46-.04.71s-.06.52-.1.8h-9.94c.07.67.28,1.24.6,1.71.33.47.74.83,1.25,1.09.5.26,1.09.39,1.76.39.77,0,1.46-.16,2.09-.49.62-.33,1.06-.74,1.3-1.25l2.77.92c-.56,1.12-1.39,2-2.48,2.65-1.09.64-2.33.97-3.71.97Zm3-8.57c0-.58-.15-1.1-.45-1.57-.3-.47-.69-.83-1.18-1.11-.49-.27-1.03-.41-1.62-.41-.54,0-1.04.13-1.5.39-.46.26-.84.62-1.16,1.08-.32.46-.53.99-.64,1.61h6.55Z"/>
          <path class="cls-2" d="m89.23,55.98h-3.11l-4.34-14h3.28l2.6,10.25,2.69-10.25h3.11l2.63,10.22,2.58-10.22h3.19l-4.34,14h-3.14l-2.55-9.44-2.6,9.44Z"/>
          <path class="cls-2" d="m111.99,41.98h2.86l.2,1.34c.48-.49,1.04-.86,1.68-1.13.63-.27,1.32-.41,2.07-.41.93,0,1.77.19,2.52.57.75.38,1.34.94,1.79,1.67.5-.71,1.18-1.26,2.02-1.65.84-.39,1.74-.59,2.69-.59,1.1,0,2.06.23,2.87.69.81.46,1.44,1.13,1.89,2.02.45.89.67,1.99.67,3.32v8.18h-3.14v-7.73c0-1.2-.25-2.09-.76-2.69-.5-.6-1.23-.9-2.18-.9s-1.73.3-2.27.91c-.54.61-.81,1.51-.81,2.7v7.7h-3.16v-7.73c0-1.2-.23-2.09-.69-2.69s-1.16-.9-2.11-.9-1.71.3-2.21.91c-.5.61-.76,1.51-.76,2.7v7.7h-3.16v-14Z"/>
          <path class="cls-2" d="m138.73,39.85c-.58,0-1.06-.2-1.46-.59-.39-.39-.59-.86-.59-1.4,0-.58.2-1.06.59-1.46.39-.39.88-.59,1.46-.59s1.04.2,1.43.59c.39.39.59.88.59,1.46,0,.54-.2,1.01-.59,1.4-.39.39-.87.59-1.43.59Zm-1.6,2.13h3.16v14h-3.16v-14Z"/>
          <path class="cls-2" d="m144.39,35.82h3.16v20.16h-3.16v-20.16Z"/>
          <path class="cls-2" d="m151.16,35.82h3.16v20.16h-3.16v-20.16Z"/>
          <path class="cls-2" d="m164.21,56.18c-1.4,0-2.63-.31-3.68-.92-1.05-.62-1.88-1.47-2.46-2.58s-.88-2.37-.88-3.81c0-1.36.29-2.58.87-3.64.58-1.06,1.38-1.9,2.41-2.52,1.03-.62,2.18-.92,3.47-.92s2.52.29,3.53.87c1.01.58,1.8,1.39,2.38,2.42s.87,2.24.87,3.6c0,.22-.01.46-.04.71s-.06.52-.1.8h-9.94c.07.67.28,1.24.6,1.71.33.47.74.83,1.25,1.09.5.26,1.09.39,1.76.39.77,0,1.46-.16,2.09-.49.62-.33,1.06-.74,1.3-1.25l2.77.92c-.56,1.12-1.39,2-2.48,2.65s-2.33.97-3.71.97Zm3-8.57c0-.58-.15-1.1-.45-1.57-.3-.47-.69-.83-1.18-1.11-.49-.27-1.03-.41-1.62-.41-.54,0-1.04.13-1.5.39-.46.26-.84.62-1.16,1.08-.32.46-.53.99-.64,1.61h6.55Z"/>
          <path class="cls-2" d="m173.59,41.98h2.86l.25,1.76c.37-.47.81-.86,1.32-1.18s1.05-.53,1.64-.64c.59-.11,1.18-.09,1.78.06v2.91c-.5-.17-1.02-.21-1.55-.13s-1.04.29-1.51.6c-.48.32-.86.78-1.16,1.37-.3.6-.45,1.34-.45,2.21v7.03h-3.16v-14Z"/>
        </g>
      </g>
      <g id="learning" class="cls-4">
        <g class="cls-4">
          <path class="cls-2" d="m82,64.35h2.1v20.16h-2.1v-20.16Z"/>
          <path class="cls-2" d="m93.99,84.71c-1.31,0-2.47-.32-3.49-.95s-1.82-1.5-2.39-2.6c-.58-1.1-.87-2.36-.87-3.78s.29-2.58.87-3.64c.58-1.06,1.37-1.9,2.38-2.51,1.01-.61,2.16-.91,3.44-.91s2.4.28,3.4.84c1,.56,1.78,1.33,2.34,2.32.56.99.82,2.12.78,3.39,0,.21,0,.42-.03.64s-.04.47-.06.73h-10.84c.04.88.25,1.65.64,2.32.39.67.91,1.2,1.55,1.58.64.38,1.38.57,2.2.57,1.08,0,2-.21,2.76-.62.76-.41,1.3-1,1.64-1.76l1.82.73c-.56,1.18-1.37,2.08-2.44,2.7-1.06.63-2.31.94-3.72.94Zm4.17-8.29c.02-.8-.15-1.51-.52-2.13-.36-.62-.87-1.1-1.53-1.46-.65-.35-1.41-.53-2.27-.53-.75,0-1.43.18-2.04.53s-1.12.84-1.53,1.47c-.4.63-.64,1.33-.71,2.11h8.6Z"/>
          <path class="cls-2" d="m112.38,84.51l-.17-2.52c-.39.86-.97,1.53-1.74,2-.77.48-1.74.71-2.91.71-1.01,0-1.87-.16-2.58-.48-.71-.32-1.25-.77-1.64-1.36s-.57-1.28-.57-2.09c0-1.18.44-2.14,1.32-2.9.88-.76,2.15-1.22,3.81-1.39l4.31-.48v-1.12c0-.78-.29-1.41-.87-1.89-.58-.48-1.36-.71-2.35-.71s-1.78.22-2.42.67c-.64.45-1.09,1.09-1.33,1.93l-1.9-.67c.37-1.23,1.06-2.19,2.06-2.88,1-.69,2.22-1.04,3.65-1.04,1.66,0,2.95.42,3.88,1.27s1.39,2,1.39,3.46v9.46h-1.93Zm-.17-6.69l-4.34.5c-.93.11-1.64.37-2.13.77-.49.4-.73.93-.73,1.58s.24,1.18.71,1.57c.48.39,1.16.59,2.06.59,1.03,0,1.87-.21,2.52-.62.65-.41,1.13-.97,1.44-1.67.31-.7.46-1.46.46-2.28v-.45Z"/>
          <path class="cls-2" d="m118.12,70.51h1.93l.11,2.04c.37-.5.83-.93,1.36-1.29s1.12-.6,1.76-.74c.64-.14,1.33-.14,2.06-.01v2.1c-.78-.15-1.49-.15-2.11,0-.63.15-1.16.43-1.61.84-.45.41-.79.93-1.04,1.55-.24.62-.36,1.35-.36,2.17v7.34h-2.1v-14Z"/>
          <path class="cls-2" d="m127.92,70.51h1.93l.11,1.99c.45-.69,1.04-1.23,1.76-1.61.73-.38,1.58-.57,2.55-.57,1.06,0,2,.23,2.8.69s1.43,1.14,1.88,2.04c.45.91.67,2.04.67,3.4v8.06h-2.1v-7.81c0-1.46-.31-2.56-.94-3.32-.62-.76-1.53-1.13-2.7-1.13s-2.16.4-2.84,1.2-1.02,1.99-1.02,3.56v7.5h-2.1v-14Z"/>
          <path class="cls-2" d="m144.89,67.71c-.43,0-.78-.14-1.06-.42s-.42-.62-.42-1.04.14-.78.42-1.06.63-.42,1.06-.42c.39,0,.73.14,1.02.42.29.28.43.63.43,1.06s-.14.76-.43,1.04c-.29.28-.63.42-1.02.42Zm-1.06,2.8h2.07v14h-2.07v-14Z"/>
          <path class="cls-2" d="m150.35,70.51h1.93l.11,1.99c.45-.69,1.04-1.23,1.76-1.61.73-.38,1.58-.57,2.55-.57,1.06,0,2,.23,2.8.69.8.46,1.43,1.14,1.88,2.04s.67,2.04.67,3.4v8.06h-2.1v-7.81c0-1.46-.31-2.56-.94-3.32-.63-.76-1.53-1.13-2.7-1.13s-2.16.4-2.84,1.2c-.68.8-1.02,1.99-1.02,3.56v7.5h-2.1v-14Z"/>
          <path class="cls-2" d="m176.58,70.51h1.93v11.42c0,1.72-.38,3.19-1.15,4.41s-1.88,2.16-3.33,2.8c-1.46.64-3.23.97-5.32.97l-.34-1.93c2.63-.04,4.63-.58,5.99-1.64,1.36-1.05,2.04-2.59,2.04-4.61v-.31l.22.06c-.43.82-1.07,1.53-1.93,2.11-.86.59-1.97.89-3.33.91-1.29,0-2.41-.29-3.37-.88-.96-.59-1.71-1.42-2.24-2.51-.53-1.08-.8-2.35-.8-3.81s.27-2.72.8-3.79,1.28-1.91,2.24-2.51c.96-.6,2.09-.9,3.37-.9.84,0,1.59.13,2.24.38s1.21.59,1.68,1.01c.47.42.85.89,1.15,1.41l.14-2.6Zm-9.35,7c0,1.61.42,2.88,1.25,3.82.83.94,1.96,1.41,3.37,1.41.86,0,1.63-.21,2.32-.62.69-.41,1.24-1.01,1.64-1.79s.6-1.73.6-2.83-.2-2.04-.6-2.81c-.4-.77-.95-1.37-1.64-1.79-.69-.42-1.47-.63-2.32-.63-1.4,0-2.52.48-3.36,1.43-.84.95-1.26,2.22-1.26,3.81Z"/>
        </g>
      </g>
      <path id="Subtract" class="cls-3" d="m190.27,9.75v1.37c.12,4.99,1.57,22.51,15.56,35.95-14,13.44-15.45,30.96-15.56,35.95v1.38s3.45.4,5.67.4,5.67-.4,5.67-.4v-23.64l16.69,16.69s2.72-2.16,4.29-3.73c1.57-1.57,3.73-4.29,3.73-4.29l-16.69-16.69h23.63s.4-3.45.4-5.67-.4-5.67-.4-5.67h-23.71l16.76-16.76s-2.16-2.72-3.73-4.29-4.29-3.73-4.29-3.73l-16.69,16.69V9.75s-3.45-.4-5.67-.4-5.67.4-5.67.4Z"/>
    </g>
  </g>
</svg>